<svg xmlns="http://www.w3.org/2000/svg" viewBox="0 0 100 120" fill="#9CA3AF">
  <!-- Soccer player silhouette - kicking pose -->
  <!-- Head -->
  <circle cx="50" cy="18" r="12"/>

  <!-- Body/Torso -->
  <path d="M50 30
           C45 30, 38 35, 36 50
           L34 70
           C34 72, 36 74, 40 74
           L44 74
           L46 55
           L50 55
           L54 55
           L56 74
           L60 74
           C64 74, 66 72, 66 70
           L64 50
           C62 35, 55 30, 50 30 Z"/>

  <!-- Left arm -->
  <path d="M36 40
           C30 42, 25 50, 22 55
           C20 58, 22 60, 25 58
           C30 54, 35 48, 38 45 Z"/>

  <!-- Right arm -->
  <path d="M64 40
           C70 42, 75 50, 78 55
           C80 58, 78 60, 75 58
           C70 54, 65 48, 62 45 Z"/>

  <!-- Left leg (planted) -->
  <path d="M42 74
           L40 95
           C39 100, 38 105, 35 108
           C33 110, 32 112, 35 113
           L45 113
           C47 113, 48 111, 47 109
           L46 95
           L48 74 Z"/>

  <!-- Right leg (kicking) -->
  <path d="M52 74
           L58 78
           C65 82, 75 88, 82 92
           C85 94, 88 93, 87 90
           L80 85
           C72 80, 62 75, 56 74 Z"/>

  <!-- Soccer ball -->
  <circle cx="88" cy="95" r="8" fill="none" stroke="#9CA3AF" stroke-width="2"/>
  <path d="M88 87 L88 91 M88 99 L88 103 M80 95 L84 95 M92 95 L96 95 M82 89 L85 92 M91 98 L94 101 M82 101 L85 98 M91 92 L94 89" stroke="#9CA3AF" stroke-width="1"/>
</svg>
